<mxfile host="Electron" modified="2024-02-14T02:22:15.369Z" agent="Mozilla/5.0 (Windows NT 10.0; Win64; x64) AppleWebKit/537.36 (KHTML, like Gecko) draw.io/21.7.5 Chrome/114.0.5735.289 Electron/25.8.1 Safari/537.36" etag="r2_SVcLDyokqtLC8uXfS" version="21.7.5" type="device">
  <diagram name="Page-1" id="izaGZLbTDicXnL1AUWoh">
    <mxGraphModel dx="3180" dy="866" grid="1" gridSize="10" guides="1" tooltips="1" connect="1" arrows="1" fold="1" page="1" pageScale="1" pageWidth="850" pageHeight="1100" math="0" shadow="0">
      <root>
        <mxCell id="0" />
        <mxCell id="1" parent="0" />
        <mxCell id="MxTg2UpBYjRjRhozJN8U-1" value="Renter" style="shape=umlActor;verticalLabelPosition=bottom;verticalAlign=top;html=1;outlineConnect=0;fillColor=#d5e8d4;strokeColor=#82b366;" parent="1" vertex="1">
          <mxGeometry x="-1680" y="300" width="30" height="60" as="geometry" />
        </mxCell>
        <mxCell id="MxTg2UpBYjRjRhozJN8U-2" value="Place Booking Request" style="shape=ellipse;container=1;horizontal=1;horizontalStack=0;resizeParent=1;resizeParentMax=0;resizeLast=0;html=1;dashed=0;collapsible=0;fillColor=#d5e8d4;strokeColor=#82b366;" parent="1" vertex="1">
          <mxGeometry x="-1590" y="190" width="160" height="50" as="geometry" />
        </mxCell>
        <mxCell id="MxTg2UpBYjRjRhozJN8U-10" value="" style="endArrow=none;html=1;rounded=0;exitX=1;exitY=0.3333333333333333;exitDx=0;exitDy=0;exitPerimeter=0;entryX=0;entryY=0.5;entryDx=0;entryDy=0;" parent="1" source="MxTg2UpBYjRjRhozJN8U-1" target="MxTg2UpBYjRjRhozJN8U-2" edge="1">
          <mxGeometry width="50" height="50" relative="1" as="geometry">
            <mxPoint x="-1280" y="405" as="sourcePoint" />
            <mxPoint x="-1230" y="355" as="targetPoint" />
          </mxGeometry>
        </mxCell>
        <mxCell id="MxTg2UpBYjRjRhozJN8U-11" value="Owner" style="shape=umlActor;verticalLabelPosition=bottom;verticalAlign=top;html=1;outlineConnect=0;fillColor=#dae8fc;strokeColor=#6c8ebf;" parent="1" vertex="1">
          <mxGeometry x="-890" y="350" width="30" height="60" as="geometry" />
        </mxCell>
        <mxCell id="MxTg2UpBYjRjRhozJN8U-12" value="Recieve Booking Request" style="shape=ellipse;container=1;horizontal=1;horizontalStack=0;resizeParent=1;resizeParentMax=0;resizeLast=0;html=1;dashed=0;collapsible=0;fillColor=#dae8fc;strokeColor=#6c8ebf;" parent="1" vertex="1">
          <mxGeometry x="-1140" y="610" width="160" height="50" as="geometry" />
        </mxCell>
        <mxCell id="MxTg2UpBYjRjRhozJN8U-14" value="" style="endArrow=none;html=1;rounded=0;entryX=0;entryY=0.3333333333333333;entryDx=0;entryDy=0;entryPerimeter=0;exitX=1;exitY=0.5;exitDx=0;exitDy=0;" parent="1" source="MxTg2UpBYjRjRhozJN8U-12" target="MxTg2UpBYjRjRhozJN8U-11" edge="1">
          <mxGeometry width="50" height="50" relative="1" as="geometry">
            <mxPoint x="-1070" y="535" as="sourcePoint" />
            <mxPoint x="-1020" y="485" as="targetPoint" />
          </mxGeometry>
        </mxCell>
        <mxCell id="MxTg2UpBYjRjRhozJN8U-15" value="Check Trip details" style="shape=ellipse;container=1;horizontal=1;horizontalStack=0;resizeParent=1;resizeParentMax=0;resizeLast=0;html=1;dashed=0;collapsible=0;fillColor=#fff2cc;strokeColor=#d6b656;" parent="1" vertex="1">
          <mxGeometry x="-1480" y="880" width="160" height="50" as="geometry" />
        </mxCell>
        <mxCell id="MxTg2UpBYjRjRhozJN8U-17" value="Confirm Vehicle Availability" style="shape=ellipse;container=1;horizontal=1;horizontalStack=0;resizeParent=1;resizeParentMax=0;resizeLast=0;html=1;dashed=0;collapsible=0;fillColor=#dae8fc;strokeColor=#6c8ebf;" parent="1" vertex="1">
          <mxGeometry x="-1365" y="660" width="165" height="50" as="geometry" />
        </mxCell>
        <mxCell id="MxTg2UpBYjRjRhozJN8U-21" value="&amp;lt;&amp;lt;include&amp;gt;&amp;gt;" style="html=1;verticalAlign=bottom;labelBackgroundColor=none;endArrow=open;endFill=0;dashed=1;rounded=0;entryX=1;entryY=0.5;entryDx=0;entryDy=0;exitX=0;exitY=0.5;exitDx=0;exitDy=0;" parent="1" source="MxTg2UpBYjRjRhozJN8U-12" target="MxTg2UpBYjRjRhozJN8U-17" edge="1">
          <mxGeometry width="160" relative="1" as="geometry">
            <mxPoint x="-1230" y="480" as="sourcePoint" />
            <mxPoint x="-1170" y="425" as="targetPoint" />
          </mxGeometry>
        </mxCell>
        <mxCell id="MxTg2UpBYjRjRhozJN8U-23" value="Confirm Driver Availability" style="shape=ellipse;container=1;horizontal=1;horizontalStack=0;resizeParent=1;resizeParentMax=0;resizeLast=0;html=1;dashed=0;collapsible=0;fillColor=#f8cecc;strokeColor=#b85450;" parent="1" vertex="1">
          <mxGeometry x="-1400" y="820" width="160" height="50" as="geometry" />
        </mxCell>
        <mxCell id="MxTg2UpBYjRjRhozJN8U-24" value="&amp;lt;&amp;lt;include&amp;gt;&amp;gt;" style="html=1;verticalAlign=bottom;labelBackgroundColor=none;endArrow=open;endFill=0;dashed=1;rounded=0;entryX=1;entryY=0.5;entryDx=0;entryDy=0;exitX=0;exitY=0.5;exitDx=0;exitDy=0;" parent="1" source="MxTg2UpBYjRjRhozJN8U-12" target="MxTg2UpBYjRjRhozJN8U-23" edge="1">
          <mxGeometry width="160" relative="1" as="geometry">
            <mxPoint x="-960" y="600" as="sourcePoint" />
            <mxPoint x="-1030" y="630" as="targetPoint" />
          </mxGeometry>
        </mxCell>
        <mxCell id="MxTg2UpBYjRjRhozJN8U-25" value="" style="shape=ellipse;container=1;horizontal=1;horizontalStack=0;resizeParent=1;resizeParentMax=0;resizeLast=0;html=1;dashed=0;collapsible=0;fillColor=#dae8fc;strokeColor=#6c8ebf;" parent="1" vertex="1">
          <mxGeometry x="-1110" y="120" width="180" height="80" as="geometry" />
        </mxCell>
        <mxCell id="MxTg2UpBYjRjRhozJN8U-27" value="Accept Booking Request" style="text;html=1;strokeColor=none;fillColor=none;align=center;verticalAlign=middle;whiteSpace=wrap;rounded=0;" parent="MxTg2UpBYjRjRhozJN8U-25" vertex="1">
          <mxGeometry x="15" y="10" width="150" height="30" as="geometry" />
        </mxCell>
        <mxCell id="MxTg2UpBYjRjRhozJN8U-29" value="if there is any problem of booking" style="text;html=1;strokeColor=none;fillColor=none;align=center;verticalAlign=middle;whiteSpace=wrap;rounded=0;" parent="MxTg2UpBYjRjRhozJN8U-25" vertex="1">
          <mxGeometry x="15" y="40" width="150" height="30" as="geometry" />
        </mxCell>
        <mxCell id="MxTg2UpBYjRjRhozJN8U-26" value="" style="endArrow=none;html=1;rounded=0;entryX=0;entryY=0.3333333333333333;entryDx=0;entryDy=0;entryPerimeter=0;exitX=1;exitY=0.5;exitDx=0;exitDy=0;" parent="1" source="MxTg2UpBYjRjRhozJN8U-25" target="MxTg2UpBYjRjRhozJN8U-11" edge="1">
          <mxGeometry width="50" height="50" relative="1" as="geometry">
            <mxPoint x="-750" y="445" as="sourcePoint" />
            <mxPoint x="-1040" y="385" as="targetPoint" />
          </mxGeometry>
        </mxCell>
        <mxCell id="MxTg2UpBYjRjRhozJN8U-28" value="" style="endArrow=none;html=1;rounded=0;entryX=1;entryY=0.5;entryDx=0;entryDy=0;exitX=0;exitY=0.5;exitDx=0;exitDy=0;" parent="1" source="MxTg2UpBYjRjRhozJN8U-25" target="MxTg2UpBYjRjRhozJN8U-25" edge="1">
          <mxGeometry width="50" height="50" relative="1" as="geometry">
            <mxPoint x="-1270" y="130" as="sourcePoint" />
            <mxPoint x="-1220" y="80" as="targetPoint" />
          </mxGeometry>
        </mxCell>
        <mxCell id="MxTg2UpBYjRjRhozJN8U-30" value="Reject Booking Request" style="shape=ellipse;container=1;horizontal=1;horizontalStack=0;resizeParent=1;resizeParentMax=0;resizeLast=0;html=1;dashed=0;collapsible=0;fillColor=#dae8fc;strokeColor=#6c8ebf;" parent="1" vertex="1">
          <mxGeometry x="-1200" y="40" width="170" height="50" as="geometry" />
        </mxCell>
        <mxCell id="MxTg2UpBYjRjRhozJN8U-31" value="&amp;lt;&amp;lt;extend&amp;gt;&amp;gt;" style="html=1;verticalAlign=bottom;labelBackgroundColor=none;endArrow=open;endFill=0;dashed=1;rounded=0;entryX=0.5;entryY=0;entryDx=0;entryDy=0;exitX=1;exitY=0.5;exitDx=0;exitDy=0;" parent="1" source="MxTg2UpBYjRjRhozJN8U-30" target="MxTg2UpBYjRjRhozJN8U-25" edge="1">
          <mxGeometry width="160" relative="1" as="geometry">
            <mxPoint x="-1170" y="280" as="sourcePoint" />
            <mxPoint x="-1010" y="280" as="targetPoint" />
          </mxGeometry>
        </mxCell>
        <mxCell id="MxTg2UpBYjRjRhozJN8U-32" value="Display Booking Status" style="shape=ellipse;container=1;horizontal=1;horizontalStack=0;resizeParent=1;resizeParentMax=0;resizeLast=0;html=1;dashed=0;collapsible=0;fillColor=#d5e8d4;strokeColor=#82b366;" parent="1" vertex="1">
          <mxGeometry x="-1450" y="240" width="160" height="50" as="geometry" />
        </mxCell>
        <mxCell id="MxTg2UpBYjRjRhozJN8U-34" value="" style="endArrow=none;html=1;rounded=0;exitX=1;exitY=0.3333333333333333;exitDx=0;exitDy=0;exitPerimeter=0;entryX=0;entryY=0.5;entryDx=0;entryDy=0;" parent="1" source="MxTg2UpBYjRjRhozJN8U-1" target="MxTg2UpBYjRjRhozJN8U-32" edge="1">
          <mxGeometry width="50" height="50" relative="1" as="geometry">
            <mxPoint x="-1640" y="330" as="sourcePoint" />
            <mxPoint x="-1570" y="330" as="targetPoint" />
          </mxGeometry>
        </mxCell>
        <mxCell id="MxTg2UpBYjRjRhozJN8U-37" value="" style="endArrow=none;html=1;rounded=0;exitX=1;exitY=0.3333333333333333;exitDx=0;exitDy=0;exitPerimeter=0;entryX=0;entryY=0.5;entryDx=0;entryDy=0;" parent="1" source="MxTg2UpBYjRjRhozJN8U-1" target="Qgb-KHAjnE3yZhs6E9ZF-3" edge="1">
          <mxGeometry width="50" height="50" relative="1" as="geometry">
            <mxPoint x="-1640" y="330" as="sourcePoint" />
            <mxPoint x="-1600" y="375" as="targetPoint" />
          </mxGeometry>
        </mxCell>
        <mxCell id="MxTg2UpBYjRjRhozJN8U-38" value="Confirm Reservation" style="shape=ellipse;container=1;horizontal=1;horizontalStack=0;resizeParent=1;resizeParentMax=0;resizeLast=0;html=1;dashed=0;collapsible=0;fillColor=#dae8fc;strokeColor=#6c8ebf;" parent="1" vertex="1">
          <mxGeometry x="-1090" y="230" width="160" height="50" as="geometry" />
        </mxCell>
        <mxCell id="MxTg2UpBYjRjRhozJN8U-39" value="" style="endArrow=none;html=1;rounded=0;entryX=0;entryY=0.3333333333333333;entryDx=0;entryDy=0;entryPerimeter=0;exitX=1;exitY=0.5;exitDx=0;exitDy=0;" parent="1" source="MxTg2UpBYjRjRhozJN8U-38" target="MxTg2UpBYjRjRhozJN8U-11" edge="1">
          <mxGeometry width="50" height="50" relative="1" as="geometry">
            <mxPoint x="-740" y="465" as="sourcePoint" />
            <mxPoint x="-710" y="455" as="targetPoint" />
          </mxGeometry>
        </mxCell>
        <mxCell id="MxTg2UpBYjRjRhozJN8U-40" value="Update Vehicle Availability" style="shape=ellipse;container=1;horizontal=1;horizontalStack=0;resizeParent=1;resizeParentMax=0;resizeLast=0;html=1;dashed=0;collapsible=0;fillColor=#dae8fc;strokeColor=#6c8ebf;" parent="1" vertex="1">
          <mxGeometry x="-1280" y="270" width="170" height="50" as="geometry" />
        </mxCell>
        <mxCell id="MxTg2UpBYjRjRhozJN8U-41" value="&amp;lt;&amp;lt;include&amp;gt;&amp;gt;" style="html=1;verticalAlign=bottom;labelBackgroundColor=none;endArrow=open;endFill=0;dashed=1;rounded=0;entryX=1;entryY=0.5;entryDx=0;entryDy=0;exitX=0;exitY=0.5;exitDx=0;exitDy=0;" parent="1" source="MxTg2UpBYjRjRhozJN8U-38" target="MxTg2UpBYjRjRhozJN8U-40" edge="1">
          <mxGeometry width="160" relative="1" as="geometry">
            <mxPoint x="-1050" y="175" as="sourcePoint" />
            <mxPoint x="-1150" y="205" as="targetPoint" />
          </mxGeometry>
        </mxCell>
        <mxCell id="MxTg2UpBYjRjRhozJN8U-42" value="View Booking Histroy" style="shape=ellipse;container=1;horizontal=1;horizontalStack=0;resizeParent=1;resizeParentMax=0;resizeLast=0;html=1;dashed=0;collapsible=0;fillColor=#d5e8d4;strokeColor=#82b366;" parent="1" vertex="1">
          <mxGeometry x="-1610" y="130" width="160" height="50" as="geometry" />
        </mxCell>
        <mxCell id="OZ8z8A9X4wpdjpOqCHh4-1" value="" style="endArrow=none;html=1;rounded=0;exitX=1;exitY=0.3333333333333333;exitDx=0;exitDy=0;exitPerimeter=0;entryX=0;entryY=0.5;entryDx=0;entryDy=0;" parent="1" source="MxTg2UpBYjRjRhozJN8U-1" target="MxTg2UpBYjRjRhozJN8U-42" edge="1">
          <mxGeometry width="50" height="50" relative="1" as="geometry">
            <mxPoint x="-1640" y="330" as="sourcePoint" />
            <mxPoint x="-1560" y="330" as="targetPoint" />
          </mxGeometry>
        </mxCell>
        <mxCell id="OZ8z8A9X4wpdjpOqCHh4-3" value="Driver&lt;br&gt;" style="shape=umlActor;verticalLabelPosition=bottom;verticalAlign=top;html=1;outlineConnect=0;fillColor=#fff2cc;strokeColor=#d6b656;" parent="1" vertex="1">
          <mxGeometry x="-1660" y="880" width="30" height="60" as="geometry" />
        </mxCell>
        <mxCell id="OZ8z8A9X4wpdjpOqCHh4-4" value="View Hires" style="shape=ellipse;container=1;horizontal=1;horizontalStack=0;resizeParent=1;resizeParentMax=0;resizeLast=0;html=1;dashed=0;collapsible=0;fillColor=#fff2cc;strokeColor=#d6b656;" parent="1" vertex="1">
          <mxGeometry x="-1595" y="790" width="170" height="50" as="geometry" />
        </mxCell>
        <mxCell id="OZ8z8A9X4wpdjpOqCHh4-5" value="" style="endArrow=none;html=1;rounded=0;exitX=1;exitY=0.3333333333333333;exitDx=0;exitDy=0;exitPerimeter=0;entryX=0;entryY=0.5;entryDx=0;entryDy=0;" parent="1" source="OZ8z8A9X4wpdjpOqCHh4-3" target="OZ8z8A9X4wpdjpOqCHh4-4" edge="1">
          <mxGeometry width="50" height="50" relative="1" as="geometry">
            <mxPoint x="-1160" y="730" as="sourcePoint" />
            <mxPoint x="-1110" y="680" as="targetPoint" />
          </mxGeometry>
        </mxCell>
        <mxCell id="OZ8z8A9X4wpdjpOqCHh4-6" value="" style="endArrow=none;html=1;rounded=0;entryX=0;entryY=0.5;entryDx=0;entryDy=0;exitX=1;exitY=0.3333333333333333;exitDx=0;exitDy=0;exitPerimeter=0;" parent="1" source="OZ8z8A9X4wpdjpOqCHh4-3" target="MxTg2UpBYjRjRhozJN8U-23" edge="1">
          <mxGeometry width="50" height="50" relative="1" as="geometry">
            <mxPoint x="-1650" y="980" as="sourcePoint" />
            <mxPoint x="-1570" y="885" as="targetPoint" />
          </mxGeometry>
        </mxCell>
        <mxCell id="OZ8z8A9X4wpdjpOqCHh4-7" value="" style="endArrow=none;html=1;rounded=0;exitX=1;exitY=0.3333333333333333;exitDx=0;exitDy=0;exitPerimeter=0;entryX=0;entryY=0.5;entryDx=0;entryDy=0;" parent="1" source="OZ8z8A9X4wpdjpOqCHh4-3" target="MxTg2UpBYjRjRhozJN8U-15" edge="1">
          <mxGeometry width="50" height="50" relative="1" as="geometry">
            <mxPoint x="-1640" y="990" as="sourcePoint" />
            <mxPoint x="-1570" y="885" as="targetPoint" />
          </mxGeometry>
        </mxCell>
        <mxCell id="OZ8z8A9X4wpdjpOqCHh4-8" value="View earnings" style="shape=ellipse;container=1;horizontal=1;horizontalStack=0;resizeParent=1;resizeParentMax=0;resizeLast=0;html=1;dashed=0;collapsible=0;fillColor=#f8cecc;strokeColor=#b85450;" parent="1" vertex="1">
          <mxGeometry x="-1420" y="990" width="160" height="50" as="geometry" />
        </mxCell>
        <mxCell id="OZ8z8A9X4wpdjpOqCHh4-9" value="" style="endArrow=none;html=1;rounded=0;exitX=1;exitY=0.3333333333333333;exitDx=0;exitDy=0;exitPerimeter=0;entryX=0;entryY=0.5;entryDx=0;entryDy=0;" parent="1" source="OZ8z8A9X4wpdjpOqCHh4-3" target="OZ8z8A9X4wpdjpOqCHh4-8" edge="1">
          <mxGeometry width="50" height="50" relative="1" as="geometry">
            <mxPoint x="-1580" y="720" as="sourcePoint" />
            <mxPoint x="-1510" y="615" as="targetPoint" />
            <Array as="points" />
          </mxGeometry>
        </mxCell>
        <mxCell id="OZ8z8A9X4wpdjpOqCHh4-11" value="" style="endArrow=none;html=1;rounded=0;entryX=0;entryY=0.3333333333333333;entryDx=0;entryDy=0;entryPerimeter=0;exitX=1;exitY=0.5;exitDx=0;exitDy=0;" parent="1" source="OZ8z8A9X4wpdjpOqCHh4-8" target="MxTg2UpBYjRjRhozJN8U-11" edge="1">
          <mxGeometry width="50" height="50" relative="1" as="geometry">
            <mxPoint x="-1180" y="655" as="sourcePoint" />
            <mxPoint x="-1130" y="605" as="targetPoint" />
            <Array as="points">
              <mxPoint x="-920" y="800" />
            </Array>
          </mxGeometry>
        </mxCell>
        <mxCell id="OZ8z8A9X4wpdjpOqCHh4-17" value="" style="endArrow=none;html=1;rounded=0;entryX=0;entryY=0.3333333333333333;entryDx=0;entryDy=0;entryPerimeter=0;exitX=1;exitY=0.5;exitDx=0;exitDy=0;" parent="1" source="Qgb-KHAjnE3yZhs6E9ZF-2" target="MxTg2UpBYjRjRhozJN8U-11" edge="1">
          <mxGeometry width="50" height="50" relative="1" as="geometry">
            <mxPoint x="-1060" y="390" as="sourcePoint" />
            <mxPoint x="-710" y="455" as="targetPoint" />
          </mxGeometry>
        </mxCell>
        <mxCell id="OZ8z8A9X4wpdjpOqCHh4-18" value="Select Vehicle rental option" style="shape=ellipse;container=1;horizontal=1;horizontalStack=0;resizeParent=1;resizeParentMax=0;resizeLast=0;html=1;dashed=0;collapsible=0;fillColor=#d5e8d4;strokeColor=#82b366;" parent="1" vertex="1">
          <mxGeometry x="-1630" y="60" width="160" height="50" as="geometry" />
        </mxCell>
        <mxCell id="OZ8z8A9X4wpdjpOqCHh4-19" value="" style="endArrow=none;html=1;rounded=0;entryX=0;entryY=0.5;entryDx=0;entryDy=0;exitX=1;exitY=0.3333333333333333;exitDx=0;exitDy=0;exitPerimeter=0;" parent="1" source="MxTg2UpBYjRjRhozJN8U-1" target="OZ8z8A9X4wpdjpOqCHh4-18" edge="1">
          <mxGeometry width="50" height="50" relative="1" as="geometry">
            <mxPoint x="-1650" y="330" as="sourcePoint" />
            <mxPoint x="-1540" y="255" as="targetPoint" />
          </mxGeometry>
        </mxCell>
        <mxCell id="b2470x2wIgRIDRXQbqAv-1" value="For Hire" style="shape=ellipse;container=1;horizontal=1;horizontalStack=0;resizeParent=1;resizeParentMax=0;resizeLast=0;html=1;dashed=0;collapsible=0;fillColor=#d5e8d4;strokeColor=#82b366;" parent="1" vertex="1">
          <mxGeometry x="-1420" y="20" width="160" height="50" as="geometry" />
        </mxCell>
        <mxCell id="b2470x2wIgRIDRXQbqAv-2" value="For Rent" style="shape=ellipse;container=1;horizontal=1;horizontalStack=0;resizeParent=1;resizeParentMax=0;resizeLast=0;html=1;dashed=0;collapsible=0;fillColor=#d5e8d4;strokeColor=#82b366;" parent="1" vertex="1">
          <mxGeometry x="-1420" y="80" width="160" height="50" as="geometry" />
        </mxCell>
        <mxCell id="b2470x2wIgRIDRXQbqAv-4" value="" style="endArrow=classic;html=1;rounded=0;entryX=0;entryY=0.5;entryDx=0;entryDy=0;exitX=1;exitY=0.5;exitDx=0;exitDy=0;" parent="1" source="OZ8z8A9X4wpdjpOqCHh4-18" target="b2470x2wIgRIDRXQbqAv-1" edge="1">
          <mxGeometry width="50" height="50" relative="1" as="geometry">
            <mxPoint x="-1240" y="320" as="sourcePoint" />
            <mxPoint x="-1190" y="270" as="targetPoint" />
          </mxGeometry>
        </mxCell>
        <mxCell id="b2470x2wIgRIDRXQbqAv-5" value="" style="endArrow=classic;html=1;rounded=0;entryX=0;entryY=0.5;entryDx=0;entryDy=0;exitX=1;exitY=0.5;exitDx=0;exitDy=0;" parent="1" source="OZ8z8A9X4wpdjpOqCHh4-18" target="b2470x2wIgRIDRXQbqAv-2" edge="1">
          <mxGeometry width="50" height="50" relative="1" as="geometry">
            <mxPoint x="-1300" y="225" as="sourcePoint" />
            <mxPoint x="-1190" y="195" as="targetPoint" />
          </mxGeometry>
        </mxCell>
        <mxCell id="upoI_QPh7iDodcM_ElbA-3" value="Booking payment" style="shape=ellipse;container=1;horizontal=1;horizontalStack=0;resizeParent=1;resizeParentMax=0;resizeLast=0;html=1;dashed=0;collapsible=0;fillColor=#d5e8d4;strokeColor=#82b366;" parent="1" vertex="1">
          <mxGeometry x="-1595" y="520" width="160" height="50" as="geometry" />
        </mxCell>
        <mxCell id="upoI_QPh7iDodcM_ElbA-4" value="Final payment" style="shape=ellipse;container=1;horizontal=1;horizontalStack=0;resizeParent=1;resizeParentMax=0;resizeLast=0;html=1;dashed=0;collapsible=0;fillColor=#d5e8d4;strokeColor=#82b366;" parent="1" vertex="1">
          <mxGeometry x="-1470" y="470" width="160" height="50" as="geometry" />
        </mxCell>
        <mxCell id="upoI_QPh7iDodcM_ElbA-5" value="" style="endArrow=classic;html=1;rounded=0;entryX=0.5;entryY=1;entryDx=0;entryDy=0;exitX=0.5;exitY=0;exitDx=0;exitDy=0;" parent="1" source="upoI_QPh7iDodcM_ElbA-3" target="Qgb-KHAjnE3yZhs6E9ZF-3" edge="1">
          <mxGeometry width="50" height="50" relative="1" as="geometry">
            <mxPoint x="-1380" y="195" as="sourcePoint" />
            <mxPoint x="-1520" y="400" as="targetPoint" />
          </mxGeometry>
        </mxCell>
        <mxCell id="upoI_QPh7iDodcM_ElbA-6" value="" style="endArrow=classic;html=1;rounded=0;entryX=0.5;entryY=1;entryDx=0;entryDy=0;exitX=0.5;exitY=0;exitDx=0;exitDy=0;" parent="1" source="upoI_QPh7iDodcM_ElbA-4" target="Qgb-KHAjnE3yZhs6E9ZF-3" edge="1">
          <mxGeometry width="50" height="50" relative="1" as="geometry">
            <mxPoint x="-1500" y="515" as="sourcePoint" />
            <mxPoint x="-1520" y="400" as="targetPoint" />
          </mxGeometry>
        </mxCell>
        <mxCell id="upoI_QPh7iDodcM_ElbA-8" value="Payment Status" style="shape=ellipse;container=1;horizontal=1;horizontalStack=0;resizeParent=1;resizeParentMax=0;resizeLast=0;html=1;dashed=0;collapsible=0;fillColor=#d5e8d4;strokeColor=#82b366;" parent="1" vertex="1">
          <mxGeometry x="-1600" y="610" width="160" height="50" as="geometry" />
        </mxCell>
        <mxCell id="upoI_QPh7iDodcM_ElbA-14" value="" style="endArrow=none;html=1;rounded=0;exitX=1;exitY=0.3333333333333333;exitDx=0;exitDy=0;exitPerimeter=0;entryX=0;entryY=0.5;entryDx=0;entryDy=0;" parent="1" source="MxTg2UpBYjRjRhozJN8U-1" target="upoI_QPh7iDodcM_ElbA-8" edge="1">
          <mxGeometry width="50" height="50" relative="1" as="geometry">
            <mxPoint x="-1640" y="330" as="sourcePoint" />
            <mxPoint x="-1540" y="445" as="targetPoint" />
            <Array as="points" />
          </mxGeometry>
        </mxCell>
        <mxCell id="upoI_QPh7iDodcM_ElbA-15" value="&amp;lt;&amp;lt;include&amp;gt;&amp;gt;" style="html=1;verticalAlign=bottom;labelBackgroundColor=none;endArrow=open;endFill=0;dashed=1;rounded=0;entryX=1;entryY=0.5;entryDx=0;entryDy=0;exitX=0;exitY=0.5;exitDx=0;exitDy=0;" parent="1" source="Qgb-KHAjnE3yZhs6E9ZF-2" target="upoI_QPh7iDodcM_ElbA-8" edge="1">
          <mxGeometry width="160" relative="1" as="geometry">
            <mxPoint x="-1240.0000000000002" y="390" as="sourcePoint" />
            <mxPoint x="-1060" y="435" as="targetPoint" />
            <Array as="points" />
          </mxGeometry>
        </mxCell>
        <mxCell id="upoI_QPh7iDodcM_ElbA-16" value="&amp;lt;&amp;lt;include&amp;gt;&amp;gt;" style="html=1;verticalAlign=bottom;labelBackgroundColor=none;endArrow=open;endFill=0;dashed=1;rounded=0;entryX=1;entryY=0.5;entryDx=0;entryDy=0;exitX=0;exitY=0.5;exitDx=0;exitDy=0;" parent="1" source="MxTg2UpBYjRjRhozJN8U-25" target="MxTg2UpBYjRjRhozJN8U-32" edge="1">
          <mxGeometry width="160" relative="1" as="geometry">
            <mxPoint x="-940" y="425" as="sourcePoint" />
            <mxPoint x="-1060" y="435" as="targetPoint" />
          </mxGeometry>
        </mxCell>
        <mxCell id="upoI_QPh7iDodcM_ElbA-17" value="&amp;lt;&amp;lt;include&amp;gt;&amp;gt;" style="html=1;verticalAlign=bottom;labelBackgroundColor=none;endArrow=open;endFill=0;dashed=1;rounded=0;entryX=1;entryY=0.5;entryDx=0;entryDy=0;exitX=0;exitY=0.5;exitDx=0;exitDy=0;" parent="1" source="MxTg2UpBYjRjRhozJN8U-30" target="MxTg2UpBYjRjRhozJN8U-32" edge="1">
          <mxGeometry width="160" relative="1" as="geometry">
            <mxPoint x="-950" y="350" as="sourcePoint" />
            <mxPoint x="-1180" y="220" as="targetPoint" />
          </mxGeometry>
        </mxCell>
        <mxCell id="upoI_QPh7iDodcM_ElbA-19" value="Driver Payment" style="shape=ellipse;container=1;horizontal=1;horizontalStack=0;resizeParent=1;resizeParentMax=0;resizeLast=0;html=1;dashed=0;collapsible=0;fillColor=#dae8fc;strokeColor=#6c8ebf;" parent="1" vertex="1">
          <mxGeometry x="-1110" y="670" width="160" height="50" as="geometry" />
        </mxCell>
        <mxCell id="upoI_QPh7iDodcM_ElbA-20" value="" style="endArrow=none;html=1;rounded=0;entryX=0;entryY=0.3333333333333333;entryDx=0;entryDy=0;entryPerimeter=0;exitX=1;exitY=0.5;exitDx=0;exitDy=0;" parent="1" source="upoI_QPh7iDodcM_ElbA-19" target="MxTg2UpBYjRjRhozJN8U-11" edge="1">
          <mxGeometry width="50" height="50" relative="1" as="geometry">
            <mxPoint x="-790" y="615" as="sourcePoint" />
            <mxPoint x="-660" y="455" as="targetPoint" />
          </mxGeometry>
        </mxCell>
        <mxCell id="Qgb-KHAjnE3yZhs6E9ZF-2" value="Confirm Payment&amp;nbsp;" style="shape=ellipse;container=1;horizontal=1;horizontalStack=0;resizeParent=1;resizeParentMax=0;resizeLast=0;html=1;dashed=0;collapsible=0;fillColor=#dae8fc;strokeColor=#6c8ebf;" vertex="1" parent="1">
          <mxGeometry x="-1140" y="500" width="160" height="50" as="geometry" />
        </mxCell>
        <mxCell id="Qgb-KHAjnE3yZhs6E9ZF-3" value="" style="shape=ellipse;container=1;horizontal=1;horizontalStack=0;resizeParent=1;resizeParentMax=0;resizeLast=0;html=1;dashed=0;collapsible=0;fillColor=#d5e8d4;strokeColor=#82b366;" vertex="1" parent="1">
          <mxGeometry x="-1600" y="320" width="180" height="80" as="geometry" />
        </mxCell>
        <mxCell id="Qgb-KHAjnE3yZhs6E9ZF-4" value="Payment" style="text;html=1;strokeColor=none;fillColor=none;align=center;verticalAlign=middle;whiteSpace=wrap;rounded=0;" vertex="1" parent="Qgb-KHAjnE3yZhs6E9ZF-3">
          <mxGeometry x="15" y="10" width="150" height="30" as="geometry" />
        </mxCell>
        <mxCell id="Qgb-KHAjnE3yZhs6E9ZF-5" value="if there is any problem of payment" style="text;html=1;strokeColor=none;fillColor=none;align=center;verticalAlign=middle;whiteSpace=wrap;rounded=0;" vertex="1" parent="Qgb-KHAjnE3yZhs6E9ZF-3">
          <mxGeometry x="15" y="40" width="150" height="30" as="geometry" />
        </mxCell>
        <mxCell id="Qgb-KHAjnE3yZhs6E9ZF-6" value="" style="endArrow=none;html=1;rounded=0;entryX=1;entryY=0.5;entryDx=0;entryDy=0;exitX=0;exitY=0.5;exitDx=0;exitDy=0;" edge="1" parent="1" source="Qgb-KHAjnE3yZhs6E9ZF-3" target="Qgb-KHAjnE3yZhs6E9ZF-3">
          <mxGeometry width="50" height="50" relative="1" as="geometry">
            <mxPoint x="-1760" y="330" as="sourcePoint" />
            <mxPoint x="-1710" y="280" as="targetPoint" />
          </mxGeometry>
        </mxCell>
        <mxCell id="Qgb-KHAjnE3yZhs6E9ZF-8" value="payment fail error" style="shape=ellipse;container=1;horizontal=1;horizontalStack=0;resizeParent=1;resizeParentMax=0;resizeLast=0;html=1;dashed=0;collapsible=0;fillColor=#d5e8d4;strokeColor=#82b366;" vertex="1" parent="1">
          <mxGeometry x="-1320" y="370" width="160" height="50" as="geometry" />
        </mxCell>
        <mxCell id="Qgb-KHAjnE3yZhs6E9ZF-9" value="&amp;lt;&amp;lt;extend&amp;gt;&amp;gt;" style="html=1;verticalAlign=bottom;labelBackgroundColor=none;endArrow=open;endFill=0;dashed=1;rounded=0;entryX=1;entryY=0.5;entryDx=0;entryDy=0;exitX=0;exitY=0.5;exitDx=0;exitDy=0;" edge="1" parent="1" source="Qgb-KHAjnE3yZhs6E9ZF-8" target="Qgb-KHAjnE3yZhs6E9ZF-3">
          <mxGeometry width="160" relative="1" as="geometry">
            <mxPoint x="-1020" y="75" as="sourcePoint" />
            <mxPoint x="-1010" y="130" as="targetPoint" />
          </mxGeometry>
        </mxCell>
        <mxCell id="Qgb-KHAjnE3yZhs6E9ZF-10" value="Booking Management" style="shape=umlFrame;whiteSpace=wrap;html=1;pointerEvents=0;recursiveResize=0;container=1;collapsible=0;width=160;" vertex="1" parent="1">
          <mxGeometry x="-1700" width="850" height="1100" as="geometry" />
        </mxCell>
      </root>
    </mxGraphModel>
  </diagram>
</mxfile>
